<svg width="24" height="24" viewBox="0 0 24 24" fill="none" xmlns="http://www.w3.org/2000/svg" id="instagram-brand-outlined">
<path fill-rule="evenodd" clip-rule="evenodd" d="M16.1601 2.28906H7.84012C4.77678 2.28906 2.29346 4.77239 2.29346 7.83573V16.1557C2.29346 19.219 4.77678 21.7024 7.84012 21.7024H16.1601C19.2234 21.7024 21.7068 19.219 21.7068 16.1557V7.83573C21.7068 4.77239 19.2234 2.28906 16.1601 2.28906Z" stroke="currentColor" stroke-linecap="round" stroke-linejoin="round"/>
<path fill-rule="evenodd" clip-rule="evenodd" d="M12.0003 16.1559C9.70276 16.1559 7.84033 14.2935 7.84033 11.9959C7.84033 9.69837 9.70276 7.83594 12.0003 7.83594C14.2979 7.83594 16.1603 9.69837 16.1603 11.9959C16.1603 13.0992 15.722 14.1573 14.9419 14.9375C14.1617 15.7176 13.1036 16.1559 12.0003 16.1559Z" stroke="currentColor" stroke-linecap="round" stroke-linejoin="round"/>
<path d="M17.4168 5.4974C16.8185 5.4974 16.3335 5.98242 16.3335 6.58073C16.3335 7.17904 16.8185 7.66406 17.4168 7.66406C18.0151 7.66406 18.5002 7.17904 18.5002 6.58073C18.5002 5.98242 18.0151 5.4974 17.4168 5.4974Z" fill="black"/>
</svg>
