<svg width="24" height="24" viewBox="0 0 24 24" fill="none" xmlns="http://www.w3.org/2000/svg" id="linkedin-brand-outlined">
<path d="M3.21516 7.57859H7.19813V20.4031H3.21514L3.21516 7.57859ZM5.20784 1.20312C6.48124 1.20312 7.51371 2.23942 7.51371 3.51367C7.51371 4.78925 6.48124 5.8254 5.20786 5.8254C3.92992 5.8254 2.89941 4.78925 2.89941 3.51367C2.89939 2.23942 3.92987 1.20312 5.20784 1.20312ZM9.6949 7.57859H13.5092V9.33138H13.5633C14.0937 8.32229 15.3926 7.2597 17.3286 7.2597C21.3547 7.2597 22.0994 9.91466 22.0994 13.3687V20.4031H18.1239V14.1679C18.1239 12.6794 18.0945 10.766 16.0556 10.766C13.9847 10.766 13.669 12.3859 13.669 14.0578V20.4031H9.6949V7.57859Z" stroke="currentColor" stroke-linejoin="round"/>
</svg>
