<svg width="24" height="24" viewBox="0 0 24 24" fill="none" xmlns="http://www.w3.org/2000/svg" id="whatsapp-brand-outlined">
<path d="M6.9358 20.5411L7.19304 20.1124C7.07438 20.0412 6.9315 20.0224 6.79844 20.0604L6.9358 20.5411ZM3.3608 16.9661L3.84471 17.092C3.87629 16.9705 3.86103 16.8416 3.80197 16.7309L3.3608 16.9661ZM2.51027 20.2374L2.02636 20.1116L2.51027 20.2374ZM3.75281 21.4506L3.89017 21.9313H3.89017L3.75281 21.4506ZM16.0525 15.7716L16.4226 16.1079L16.4228 16.1077L16.0525 15.7716ZM15.3186 16.2989L15.1292 15.8362L15.1265 15.8373L15.3186 16.2989ZM11.4473 15.2577L11.1526 15.6617L11.1533 15.6621L11.4473 15.2577ZM9.97933 14.0065L9.62432 14.3586L9.62775 14.362L9.97933 14.0065ZM8.73067 12.5452L8.32497 12.8374L8.32667 12.8398L8.73067 12.5452ZM7.85348 11.0213L7.39277 11.2156L7.39339 11.2171L7.85348 11.0213ZM7.69237 8.69759L8.15652 8.88353L8.15756 8.88089L7.69237 8.69759ZM8.20705 7.95131L8.54996 8.31535L8.55754 8.3079L8.20705 7.95131ZM9.50045 7.61169L9.28433 8.06263L9.29118 8.06579L9.50045 7.61169ZM9.80031 7.86194L9.38939 8.14685L9.39272 8.15155L9.80031 7.86194ZM10.8386 9.32322L10.431 9.61283L10.4331 9.61566L10.8386 9.32322ZM11.0176 9.63603L10.5549 9.82562L10.5582 9.83324L11.0176 9.63603ZM10.9863 10.2259L10.5594 9.96565L10.5552 9.97256L10.5512 9.9796L10.9863 10.2259ZM10.7357 10.5432L10.3823 10.1893L10.3756 10.1963L10.7357 10.5432ZM10.3955 10.8962L10.7489 11.2501L10.7556 11.2431L10.3955 10.8962ZM10.3374 11.1777L9.85234 11.2992L9.85926 11.3268L9.86929 11.3535L10.3374 11.1777ZM10.3732 11.2671L9.8989 11.4255L9.91301 11.4677L9.93437 11.5068L10.3732 11.2671ZM10.7894 11.8391L10.4079 12.1624L10.4115 12.1666L10.7894 11.8391ZM11.4383 12.5452L11.0816 12.8957L11.0884 12.9023L11.4383 12.5452ZM12.1499 13.2021L11.8266 13.5835L11.8272 13.584L12.1499 13.2021ZM12.7273 13.6132L12.4936 14.0553L12.5171 14.0677L12.5418 14.0776L12.7273 13.6132ZM12.8078 13.649L12.6111 14.1086L12.6217 14.1132L12.6325 14.1172L12.8078 13.649ZM13.1032 13.5909L12.7523 13.2347L12.7499 13.2371L13.1032 13.5909ZM13.4433 13.2557L13.7943 13.6119L13.7966 13.6095L13.4433 13.2557ZM13.7656 13.0055L13.9966 13.4489L14.0112 13.4413L14.0253 13.4327L13.7656 13.0055ZM14.6696 13.144L14.9588 12.736L14.9505 12.7303L14.6696 13.144ZM16.151 14.1942L15.8618 14.6021L15.8667 14.6055L16.151 14.1942ZM16.3971 14.4802L16.8613 14.2942L16.8581 14.2863L16.8547 14.2785L16.3971 14.4802ZM6.67855 20.9699C8.24673 21.9108 10.1233 22.4314 12.0004 22.4314V21.4314C10.3025 21.4314 8.60403 20.959 7.19304 20.1124L6.67855 20.9699ZM12.0004 22.4314C17.7383 22.4314 22.4309 17.7388 22.4309 12.0009H21.4309C21.4309 17.1865 17.186 21.4314 12.0004 21.4314V22.4314ZM22.4309 12.0009C22.4309 6.26292 17.7383 1.57031 12.0004 1.57031V2.57031C17.186 2.57031 21.4309 6.81521 21.4309 12.0009H22.4309ZM12.0004 1.57031C6.26243 1.57031 1.56982 6.26292 1.56982 12.0009H2.56982C2.56982 6.81521 6.81472 2.57031 12.0004 2.57031V1.57031ZM1.56982 12.0009C1.56982 13.882 2.0924 15.6504 2.91962 17.2014L3.80197 16.7309C3.0403 15.3027 2.56982 13.6947 2.56982 12.0009H1.56982ZM2.87689 16.8403L2.02636 20.1116L2.99418 20.3632L3.84471 17.092L2.87689 16.8403ZM3.89017 21.9313L7.07316 21.0219L6.79844 20.0604L3.61545 20.9698L3.89017 21.9313ZM2.02636 20.1116C1.73427 21.235 2.77408 22.2502 3.89017 21.9313L3.61545 20.9698C3.24342 21.0761 2.89682 20.7377 2.99418 20.3632L2.02636 20.1116ZM15.9688 14.8287C15.9688 14.9145 15.9498 15.0069 15.9049 15.102L16.8089 15.5296C16.916 15.3029 16.9688 15.0647 16.9688 14.8287H15.9688ZM15.9049 15.102C15.8487 15.2209 15.7771 15.3311 15.6823 15.4356L16.4228 16.1077C16.5875 15.9261 16.7129 15.7325 16.8089 15.5296L15.9049 15.102ZM15.6825 15.4354C15.5073 15.6282 15.3255 15.7558 15.1292 15.8362L15.5079 16.7617C15.8576 16.6186 16.1592 16.3977 16.4226 16.1079L15.6825 15.4354ZM15.1265 15.8373C14.9211 15.9227 14.6958 15.9688 14.4458 15.9688V16.9688C14.8225 16.9688 15.1789 16.8986 15.5106 16.7606L15.1265 15.8373ZM14.4458 15.9688C14.0683 15.9688 13.6471 15.8801 13.1826 15.6824L12.7911 16.6026C13.3559 16.8429 13.9104 16.9688 14.4458 16.9688V15.9688ZM13.1826 15.6824C12.7062 15.4798 12.2242 15.2044 11.7413 14.8533L11.1533 15.6621C11.6907 16.0529 12.2381 16.3674 12.7911 16.6026L13.1826 15.6824ZM11.7419 14.8537C11.2478 14.4934 10.779 14.0941 10.3309 13.6509L9.62775 14.362C10.1106 14.8394 10.6174 15.2713 11.1526 15.6617L11.7419 14.8537ZM10.3343 13.6544C9.89044 13.2068 9.49072 12.7389 9.13468 12.2506L8.32667 12.8398C8.71355 13.3704 9.14627 13.8766 9.62434 14.3586L10.3343 13.6544ZM9.13637 12.2529C8.787 11.768 8.51143 11.2907 8.31358 10.8256L7.39339 11.2171C7.62519 11.7619 7.94037 12.3035 8.32498 12.8374L9.13637 12.2529ZM8.3142 10.8271C8.12048 10.3677 8.03125 9.94669 8.03125 9.56006H7.03125C7.03125 10.1029 7.15685 10.6561 7.39277 11.2156L8.3142 10.8271ZM8.03125 9.56006C8.03125 9.31554 8.07435 9.08862 8.15651 8.88353L7.22822 8.51166C7.09556 8.84282 7.03125 9.19684 7.03125 9.56006H8.03125ZM8.15756 8.88089C8.23632 8.681 8.36287 8.49143 8.54988 8.31527L7.86421 7.58736C7.57682 7.85807 7.36324 8.169 7.22718 8.51429L8.15756 8.88089ZM8.55754 8.3079C8.76843 8.10062 8.96108 8.03125 9.13794 8.03125V7.03125C8.65243 7.03125 8.21852 7.23895 7.85655 7.59472L8.55754 8.3079ZM9.13794 8.03125C9.19335 8.03125 9.2442 8.04333 9.28435 8.06258L9.71656 7.1608C9.53293 7.07279 9.33316 7.03125 9.13794 7.03125V8.03125ZM9.29118 8.06579C9.33333 8.08521 9.36391 8.11004 9.38941 8.14683L10.2112 7.57704C10.0756 7.38146 9.9003 7.24541 9.70972 7.15759L9.29118 8.06579ZM9.39272 8.15155L10.431 9.61283L11.2462 9.03361L10.2079 7.57233L9.39272 8.15155ZM10.4331 9.61566C10.4955 9.70222 10.5325 9.77069 10.555 9.82559L11.4803 9.44647C11.4222 9.30475 11.3429 9.16765 11.2442 9.03078L10.4331 9.61566ZM10.5582 9.83324C10.5679 9.85586 10.5737 9.87463 10.577 9.8887C10.5803 9.903 10.5803 9.90952 10.5803 9.90863H11.5803C11.5803 9.73976 11.5369 9.57818 11.4771 9.43882L10.5582 9.83324ZM10.5803 9.90863C10.5803 9.91507 10.5792 9.93322 10.5594 9.96565L11.4132 10.4862C11.5188 10.313 11.5803 10.1167 11.5803 9.90863H10.5803ZM10.5512 9.9796C10.521 10.033 10.4671 10.1047 10.3824 10.1894L11.089 10.897C11.219 10.7671 11.3353 10.6244 11.4214 10.4722L10.5512 9.9796ZM10.3756 10.1963L10.0355 10.5493L10.7556 11.2431L11.0957 10.8901L10.3756 10.1963ZM10.0423 10.5424C9.89142 10.693 9.82394 10.882 9.82394 11.075H10.8239C10.8239 11.0922 10.8211 11.1238 10.806 11.1616C10.7906 11.2004 10.7687 11.2302 10.7488 11.25L10.0423 10.5424ZM9.82394 11.075C9.82394 11.1582 9.83516 11.2306 9.85234 11.2992L10.8224 11.0563C10.8215 11.0529 10.8222 11.0549 10.8229 11.0602C10.8237 11.0659 10.8239 11.0712 10.8239 11.075H9.82394ZM9.86929 11.3535C9.88039 11.3831 9.89155 11.409 9.89656 11.4208C9.90328 11.4367 9.90147 11.4332 9.8989 11.4255L10.8474 11.1088C10.8359 11.0743 10.8229 11.0439 10.8173 11.0307C10.81 11.0135 10.8078 11.0082 10.8054 11.002L9.86929 11.3535ZM9.93437 11.5068C10.0386 11.6976 10.2022 11.9196 10.4079 12.1624L11.1708 11.5159C10.9828 11.2939 10.8689 11.1316 10.812 11.0274L9.93437 11.5068ZM10.4115 12.1666C10.618 12.4048 10.84 12.6497 11.0817 12.8956L11.795 12.1947C11.5712 11.967 11.3635 11.7382 11.1672 11.5117L10.4115 12.1666ZM11.0884 12.9023C11.3341 13.1431 11.5764 13.3714 11.8266 13.5835L12.4733 12.8207C12.2491 12.6306 12.0259 12.421 11.7883 12.1881L11.0884 12.9023ZM11.8272 13.584C12.0748 13.7932 12.2978 13.9518 12.4936 14.0553L12.9609 13.1712C12.8524 13.1138 12.6905 13.0043 12.4726 12.8202L11.8272 13.584ZM12.5418 14.0776C12.5398 14.0767 12.5411 14.0772 12.5561 14.0841C12.5678 14.0894 12.5885 14.099 12.6111 14.1086L13.0045 13.1893C12.9958 13.1855 12.9875 13.1817 12.9723 13.1748C12.9604 13.1694 12.9372 13.1586 12.9127 13.1489L12.5418 14.0776ZM12.6325 14.1172C12.7413 14.158 12.8408 14.1668 12.9197 14.1668V13.1668C12.9178 13.1668 12.9247 13.1667 12.9369 13.1686C12.95 13.1705 12.966 13.1743 12.9832 13.1807L12.6325 14.1172ZM12.9197 14.1668C13.1352 14.1668 13.3186 14.0824 13.4565 13.9447L12.7499 13.2371C12.7637 13.2233 12.7888 13.2029 12.8258 13.1872C12.8633 13.1712 12.8971 13.1668 12.9197 13.1668V14.1668ZM13.4541 13.947L13.7943 13.6119L13.0924 12.8996L12.7523 13.2347L13.4541 13.947ZM13.7966 13.6095C13.8883 13.518 13.9549 13.4706 13.9966 13.4489L13.5346 12.562C13.3704 12.6476 13.2222 12.77 13.09 12.9019L13.7966 13.6095ZM14.0253 13.4327C14.0597 13.4118 14.0738 13.4116 14.0833 13.4116V12.4116C13.8691 12.4116 13.6773 12.474 13.5059 12.5782L14.0253 13.4327ZM14.0833 13.4116C14.0952 13.4116 14.1206 13.4135 14.1673 13.4326L14.5454 12.5068C14.3952 12.4455 14.2415 12.4116 14.0833 12.4116V13.4116ZM14.1673 13.4326C14.2238 13.4557 14.2954 13.4943 14.3887 13.5577L14.9505 12.7303C14.82 12.6418 14.6858 12.5642 14.5454 12.5068L14.1673 13.4326ZM14.3805 13.5519L15.8618 14.6021L16.4402 13.7863L14.9588 12.7361L14.3805 13.5519ZM15.8667 14.6055C15.9187 14.6414 15.933 14.6667 15.9396 14.6818L16.8547 14.2785C16.7629 14.0701 16.616 13.9078 16.4353 13.7829L15.8667 14.6055ZM15.933 14.6661C15.9594 14.7321 15.9688 14.7803 15.9688 14.8287H16.9688C16.9688 14.6269 16.9244 14.4517 16.8613 14.2942L15.933 14.6661Z" fill="black"/>
</svg>
